<svg width="2400" height="1122" viewBox="0 0 2400 1122" fill="none" xmlns="http://www.w3.org/2000/svg">
<path d="M0 0H2400V1121H0V0Z" fill="#010101"/>
<path d="M1151 0H1707V818.912L1151 932V0Z" fill="white"/>
<path d="M1336 206V14H1196V174L1336 206Z" stroke="black"/>
<path d="M1378 206L1490 228V14H1378V206Z" stroke="black"/>
<path d="M1622 44L1528 14V238L1622 254V44Z" stroke="black"/>
<path d="M1336 254L1186 228V484L1336 494V254Z" stroke="black"/>
<path d="M1336 540H1186V834L1336 810V540Z" stroke="black"/>
<path d="M1490 272L1378 254V494H1490V272Z" stroke="black"/>
<path d="M1622 290L1536 278L1528 506H1634L1622 290Z" stroke="black"/>
<path d="M1490 540H1378V810L1490 774V540Z" stroke="black"/>
<path d="M1528 774V540L1628 548L1622 774H1528Z" stroke="black"/>
<path d="M1130.25 965.817L1804 872L1792 1006L1164 1120L1130.25 965.817Z" fill="white"/>
<path d="M1126 932L1708 820.325L1790 860.508L1142 966L1126 932Z" fill="#D9D9D9" fill-opacity="0.37"/>
<path d="M1126 932L1708 820.325L1790 860.508L1142 966L1126 932Z" fill="white"/>
</svg>
