  <svg width="200" height="250" id="joel" viewBox="0 0 63 94" fill="none" xmlns="http://www.w3.org/2000/svg">
        <path d="M1.92519 40.746L5.19883 34.0499L19.4007 29.6424L48.7822 31.9842L58.0311 40.8791L60.4465 56.8212L30.4025 69H13.7158L2.3394 56.9325L1.92519 40.746Z" fill="#A21B1B" stroke="black"/>
        <path d="M50.5 22.2466C50.5 27.3127 50.451 31.9052 49.2796 35.2364C48.6995 36.8859 47.8555 38.1889 46.6351 39.0837C45.4163 39.9773 43.7726 40.5 41.5263 40.5C37.0186 40.5 31.9991 38.3907 28.1019 35.0239C24.2053 31.6576 21.5 27.0966 21.5 22.2466C21.5 12.4467 29.868 4.5 38.8947 4.5C41.1449 4.5 42.974 4.99333 44.457 5.86496C45.9401 6.73674 47.1043 8.00298 48.0001 9.59005C49.8003 12.7797 50.5 17.2376 50.5 22.2466Z" fill="#E6BA9D" stroke="black"/>
        <path d="M40 20C40 20.0508 39.9889 20.0743 39.9792 20.0893C39.967 20.1083 39.9366 20.1439 39.8601 20.1873C39.6936 20.2816 39.3994 20.3634 38.9348 20.4176C38.164 20.5074 37.1093 20.5047 35.8033 20.5013C35.5453 20.5007 35.2774 20.5 35 20.5C34.7226 20.5 34.4547 20.5007 34.1967 20.5013C32.8907 20.5047 31.836 20.5074 31.0652 20.4176C30.6006 20.3634 30.3064 20.2816 30.1399 20.1873C30.0634 20.1439 30.033 20.1083 30.0208 20.0893C30.0111 20.0743 30 20.0508 30 20C30 19.8784 30.067 19.6589 30.2894 19.3705C30.5045 19.0915 30.835 18.7884 31.276 18.5075C32.156 17.947 33.4378 17.5 35 17.5C36.5622 17.5 37.844 17.947 38.724 18.5075C39.165 18.7884 39.4955 19.0915 39.7106 19.3705C39.933 19.6589 40 19.8784 40 20Z" fill="white" stroke="black"/>
        <path d="M52.4984 19.9637C52.4968 19.9645 52.495 19.9652 52.4932 19.9659C52.3795 20.0132 52.1575 20.0502 51.7718 20.0608C51.4001 20.0711 50.9405 20.0566 50.3843 20.0386L50.364 20.038C49.8181 20.0203 49.191 20 48.5 20C47.809 20 47.1819 20.0203 46.636 20.038L46.6157 20.0386C46.0595 20.0566 45.5999 20.0711 45.2282 20.0608C44.8427 20.0502 44.6208 20.0133 44.5069 19.966C44.5136 19.9414 44.5267 19.903 44.5523 19.8497C44.599 19.7524 44.6752 19.6309 44.7852 19.4918C45.0049 19.2139 45.3351 18.8963 45.7551 18.5962C46.5975 17.9943 47.748 17.5 49 17.5C50.2379 17.5 51.1147 17.9828 51.6843 18.5452C51.9718 18.829 52.1806 19.133 52.3157 19.4045C52.4407 19.6557 52.4895 19.8521 52.4984 19.9637Z" fill="white" stroke="black"/>
        <circle  cx="37.5" cy="18.5" r="0.5" fill="black"/>
        <circle cx="50.5" cy="18.5" r="0.5" fill="black"/>
        <path d="M27.5 13H39.5L40.5 16H25.5L27.5 13Z" fill="black"/>
        <path d="M44.0667 13H50.4667L51 16H43L44.0667 13Z" fill="black"/>
        <path d="M41 17.5L42 15L48.5 30L46.5 31.5L40.5 29.5L41 17.5Z" fill="#CA9069"/>
        <path d="M31.8754 56.876L35.5551 52.6942L40.6815 56.9311L40.8201 57.0457H41H45.0634L45.9504 63.569L31.3912 68.9074L19.5207 69.8966L13.7025 68.9269L9.86097 66.0457L2.45474 55.7758L1.03192 51.033L2.33553 48.0782L17.1716 47.0624L22.6106 53.8137L22.8349 54.0921L23.1709 53.9699L28.2818 52.1114L31.0702 56.8012L31.4214 57.3919L31.8754 56.876Z" fill="#E6BA9D" stroke="black"/>
        <path d="M42.5332 65.1753L43.4664 55.3771L52.4438 52.5421L60.1104 56.8545L61.9122 60.9086L58.1796 65.1078L53.8654 67.6111H48.5967L42.5332 65.1753Z" fill="#E6BA9D" stroke="black"/>
        <path d="M17 70H21.7273H29.7636L41.5818 66L43 76H17V70Z" fill="#3C4A53"/>
        <path d="M17 76H28V81.5L25 88L17.1667 86.5L16.6667 79L17 76Z" fill="#3C4A53"/>
        <path d="M28 76H43L41.5 80L38 82.5L28 82V76Z" fill="#3C4A53"/>
        <path d="M28.7133 88.7292C28.4703 89.9661 27.5728 90.9924 26.2437 91.6304C24.9145 92.2684 23.1823 92.4995 21.3674 92.143C19.7156 91.8185 18.5513 90.3352 17.8633 88.4403C17.1798 86.5578 17.0318 84.4324 17.292 83.1073C17.3342 82.8928 17.3755 82.7467 17.411 82.6502C17.426 82.662 17.4424 82.6754 17.4605 82.6907C17.5987 82.8077 17.763 82.9745 17.9746 83.1927C17.9952 83.2139 18.0161 83.2356 18.0374 83.2575C18.8614 84.1084 20.183 85.473 22.2143 85.872C22.9698 86.0204 23.7208 86.1341 24.4223 86.2404C24.6196 86.2703 24.8131 86.2996 25.0016 86.3289C25.8721 86.4643 26.6331 86.5992 27.2513 86.7921C27.8762 86.9871 28.2831 87.2203 28.5116 87.5033C28.7189 87.76 28.8321 88.1242 28.7133 88.7292Z" fill="#483531" stroke="black"/>
        <path d="M37.7296 81.7826C37.5188 82.8556 36.578 84.1993 35.3515 85.2333C34.747 85.7428 34.0971 86.1561 33.4723 86.4133C32.8426 86.6726 32.2752 86.7588 31.8145 86.6683L31.7958 86.6646C31.2074 86.5491 30.6782 86.4451 30.2115 86.3167C29.7387 86.1865 29.3653 86.0401 29.0866 85.8566C28.8176 85.6793 28.6436 85.4723 28.5487 85.2069C28.4507 84.9325 28.42 84.547 28.5297 83.9883C28.6519 83.3662 28.7411 83.0298 28.841 82.8213C28.9201 82.6563 28.998 82.5843 29.1547 82.5083C29.3053 82.4352 29.4887 82.3767 29.7705 82.2869C29.8837 82.2508 30.0127 82.2096 30.1619 82.1604C30.6273 82.007 31.2231 81.7933 31.993 81.4397C32.6249 81.5353 33.3423 81.4917 34.0267 81.417C34.3695 81.3796 34.7162 81.3328 35.0492 81.2878C35.0825 81.2833 35.1156 81.2788 35.1485 81.2744C35.515 81.225 35.8626 81.1792 36.186 81.1488C36.8653 81.085 37.3215 81.104 37.5707 81.2139C37.671 81.2581 37.7069 81.304 37.7265 81.3492C37.7516 81.4069 37.7785 81.5336 37.7296 81.7826Z" fill="#483531" stroke="black"/>
        <path d="M19.5 28.5L15.5 25V14.5L17.5 6L32 1H40.5L48.5 2L53 6V10L48.5 8.5L53 14.5L40.5 6H32L28 8.5L23.5 14.5L22.5 18V25L26 28.5L30.5 34L36 30H40.5H43.5L46.5 32.5L48.5 30L55 34V40.5L50.5 43.5H36L30.5 40.5L17.5 32.5L19.5 28.5Z" fill="#333333"/>
        <path d="M19.5 28.5L20.5 19L17.5 17L15.5 14.5M19.5 28.5L15.5 25V14.5M19.5 28.5L17.5 32.5L30.5 40.5L36 43.5H50.5L55 40.5V34L48.5 30L46.5 32.5L43.5 30H40.5H36L30.5 34L26 28.5L22.5 25V18L23.5 14.5L28 8.5L32 6H40.5L53 14.5L48.5 8.5L53 10V6L48.5 2L40.5 1H32L17.5 6L15.5 14.5" stroke="black"/>
        <path d="M43.5 34.5C43.5 35.0523 42.5523 35 42 35C41.4477 35 40.5 35.0523 40.5 34.5C40.5 33.9477 40.5 34 42 33C42.5523 33 43.5 33.9477 43.5 34.5Z" fill="#630C0C"/>
        <path d="M28.25 21.625C27.948 21.6628 28.1548 22.8095 28.25 23C28.5084 23.5168 29.2244 24.0748 29.75 24.25" stroke="#010001" stroke-linecap="round"/>
        <path d="M40 21.75C39.3108 22.1149 38.7269 22.6058 38.1181 23.0625C37.7603 23.3308 37.5209 23.875 37 23.875" stroke="#010001" stroke-linecap="round"/>
        <path d="M42.125 25.5C41.8295 25.5 41.2464 25.3928 41.125 25.7569C41.0013 26.1281 40.7708 26.6255 40.75 27C40.6966 27.961 40.5293 28.6029 41.5 29.25" stroke="#010001" stroke-linecap="round"/>
        <path d="M46.125 25.125C46.4603 25.6093 47.0117 25.8766 47.3194 26.3472C47.4941 26.6143 47.375 27.1941 47.375 27.5C47.375 28.1505 47.6329 28.8946 47.875 29.5" stroke="#010001" stroke-linecap="round"/>
        <path d="M43.25 14.625C42.8984 13.746 43.2036 12.3893 43.5 11.5" stroke="#010001" stroke-linecap="round"/>
        <path d="M39.75 14.75C39.75 14.366 39.8263 13.8736 39.6944 13.5C39.4217 12.7273 38.8689 12.0396 38.5833 11.2431C38.3844 10.6882 38.124 9.87481 37.5 9.75" stroke="#010001" stroke-linecap="round"/>
        </svg>